<?xml version="1.0" encoding="UTF-8"?>
<svg xmlns="http://www.w3.org/2000/svg" xmlns:xlink="http://www.w3.org/1999/xlink" version="1.1" viewBox="0 0 512 111.9">
  <defs>
    <style>
      .cls-1 {
        fill: url(#linear-gradient);
      }

      .cls-2 {
        fill: #fff;
      }
    </style>
    <linearGradient id="linear-gradient" x1="16.4" y1="18.5" x2="95.5" y2="97.6" gradientTransform="translate(0 114) scale(1 -1)" gradientUnits="userSpaceOnUse">
      <stop offset=".3" stop-color="#3e250d"/>
      <stop offset=".3" stop-color="#44280e"/>
      <stop offset=".4" stop-color="#633713"/>
      <stop offset=".4" stop-color="#844515"/>
      <stop offset=".5" stop-color="#a35316"/>
      <stop offset=".6" stop-color="#be5e15"/>
      <stop offset=".7" stop-color="#d26613"/>
      <stop offset=".8" stop-color="#e16b12"/>
      <stop offset="1" stop-color="#e76e11"/>
    </linearGradient>
  </defs>
  <!-- Generator: Adobe Illustrator 28.6.0, SVG Export Plug-In . SVG Version: 1.2.0 Build 709)  -->
  <g>
    <g id="Layer_1">
      <g id="CODESYNC">
        <path class="cls-2" d="M181,68c.3,0,.6,0,.9.2.3,0,.6.3.8.6l4.8,5c-2.1,2.7-4.7,4.8-7.9,6.2-3.2,1.4-6.9,2.1-11.2,2.1s-7.5-.7-10.7-2c-3.1-1.3-5.8-3.2-8-5.6s-3.9-5.2-5-8.5c-1.2-3.3-1.8-6.8-1.8-10.6s.7-7.5,2-10.7c1.3-3.3,3.2-6.1,5.6-8.4,2.4-2.4,5.3-4.2,8.6-5.5s7-2,11.1-2,3.8.2,5.5.5,3.3.8,4.9,1.4c1.5.6,2.9,1.3,4.2,2.2,1.3.8,2.4,1.8,3.4,2.8l-4.1,5.5c-.3.3-.6.6-.9.9-.4.3-.9.4-1.5.4s-.8,0-1.2-.3-.8-.4-1.2-.7-.9-.6-1.4-.9c-.5-.3-1.1-.6-1.8-.9-.7-.3-1.5-.5-2.5-.7-.9-.2-2-.3-3.3-.3-2.2,0-4.2.4-6,1.2s-3.4,1.9-4.7,3.3c-1.3,1.4-2.3,3.2-3,5.2-.7,2.1-1.1,4.4-1.1,6.9s.4,5.1,1.1,7.1c.7,2.1,1.7,3.8,3,5.2,1.3,1.4,2.7,2.5,4.4,3.2s3.5,1.1,5.4,1.1,2.1,0,3-.2,1.7-.3,2.5-.6c.8-.3,1.5-.6,2.2-1s1.4-.9,2.1-1.6c.3-.2.6-.4.9-.6.2.2.6.1.9.1Z"/>
        <path class="cls-2" d="M243.3,55.5c0,3.8-.7,7.3-2,10.5-1.3,3.2-3.1,6.1-5.5,8.5s-5.2,4.3-8.5,5.6c-3.3,1.4-7,2-11.1,2s-7.8-.7-11.1-2c-3.3-1.4-6.2-3.2-8.6-5.6-2.4-2.4-4.2-5.2-5.5-8.5-1.3-3.2-2-6.8-2-10.5s.7-7.3,2-10.5,3.1-6.1,5.5-8.5,5.2-4.3,8.6-5.6c3.3-1.4,7-2,11.1-2s7.8.7,11.1,2.1c3.3,1.4,6.2,3.3,8.5,5.6,2.4,2.4,4.2,5.2,5.5,8.5,1.4,3.1,2,6.6,2,10.4ZM230.9,55.5c0-2.6-.3-4.9-1-7s-1.6-3.8-2.9-5.2c-1.3-1.4-2.8-2.5-4.6-3.3s-3.9-1.1-6.2-1.1-4.4.4-6.2,1.1c-1.8.8-3.4,1.9-4.6,3.3-1.3,1.4-2.2,3.2-2.9,5.2-.7,2.1-1,4.4-1,7s.3,4.9,1,7,1.6,3.8,2.9,5.2c1.3,1.4,2.8,2.5,4.6,3.3s3.9,1.1,6.2,1.1,4.4-.4,6.2-1.1c1.8-.8,3.3-1.8,4.6-3.3,1.3-1.4,2.2-3.2,2.9-5.2.7-2.1,1-4.4,1-7Z"/>
        <path class="cls-2" d="M295.2,55.5c0,3.8-.6,7.3-2,10.4-1.4,3.1-3.1,5.9-5.5,8.3-2.4,2.3-5.2,4.1-8.5,5.4s-7,2-11.1,2h-20.3V29.3h20.3c4.1,0,7.8.7,11.1,2,3.3,1.3,6.2,3.1,8.5,5.4,2.4,2.3,4.2,5.1,5.5,8.3s2,6.6,2,10.4ZM282.8,55.5c0-2.6-.3-4.9-1-7s-1.6-3.8-2.9-5.3c-1.3-1.4-2.8-2.6-4.6-3.3-1.8-.8-3.9-1.2-6.2-1.2h-8.1v33.6h8.1c2.3,0,4.4-.4,6.2-1.2,1.8-.8,3.3-1.9,4.6-3.3,1.3-1.4,2.2-3.2,2.9-5.3.7-2.1,1-4.4,1-7Z"/>
        <path class="cls-2" d="M333.4,29.3v9.3h-21.4v12.2h16.4v9h-16.4v12.4h21.4v9.3h-33.6V29.3h33.6Z"/>
        <path class="cls-2" d="M366.8,37c-.2.4-.5.6-.9.6s-.7-.2-1.2-.7c-.5-.4-1.2-.9-2-1.5-.8-.5-1.9-1-3.1-1.5-1.3-.5-2.8-.7-4.7-.7s-3.5.3-4.9.8-2.6,1.2-3.5,2.1c-.9.9-1.7,2-2.2,3.2s-.7,2.4-.7,3.8.4,3.1,1.1,4.3c.7,1.1,1.7,2.1,2.9,2.9s2.6,1.5,4.1,2,3.1,1.1,4.7,1.6,3.2,1.1,4.7,1.7c1.5.6,2.9,1.4,4.1,2.4s2.2,2.1,2.9,3.5c.7,1.4,1.1,3.1,1.1,5.2s-.4,4.1-1.1,6-1.8,3.5-3.2,4.9c-1.4,1.4-3.1,2.5-5.1,3.3s-4.3,1.2-6.9,1.2-6.2-.6-8.6-1.8c-2.4-1.2-4.5-2.8-6.3-4.9l1-1.6c.3-.4.6-.5,1-.5s.5,0,.8.4.7.6,1.2,1.1c.5.4,1.1.9,1.7,1.4.7.5,1.4.9,2.3,1.4.9.4,1.9.8,3,1.1,1.1.3,2.5.4,3.9.4,2,0,3.8-.3,5.4-.9s2.9-1.4,4-2.5,1.9-2.3,2.5-3.7c.6-1.4.9-3,.9-4.6s-.4-3.3-1.1-4.4c-.7-1.2-1.7-2.1-2.9-2.9-1.2-.8-2.6-1.4-4.1-2-1.5-.5-3.1-1-4.7-1.5s-3.2-1.1-4.7-1.7c-1.5-.6-2.9-1.4-4.1-2.4s-2.2-2.2-2.9-3.6c-.7-1.4-1.1-3.3-1.1-5.4s.3-3.3,1-4.9c.6-1.6,1.6-3,2.8-4.2,1.2-1.2,2.8-2.2,4.6-2.9,1.8-.7,3.9-1.1,6.3-1.1s5,.4,7.1,1.3c2.1.8,4,2.1,5.7,3.8l-.8,1.5Z"/>
        <path class="cls-2" d="M394.3,60.6v20.9h-3.7v-20.9l-18.7-29.8h3.2c.3,0,.6.1.8.2.2.2.4.4.6.7l14.5,23.3c.3.5.6,1.1.9,1.6.2.5.5,1,.6,1.6.2-.5.4-1,.6-1.6.2-.5.5-1,.9-1.6l14.5-23.3c.1-.3.3-.5.5-.6.2-.2.5-.3.8-.3h3.2l-18.7,29.8Z"/>
        <path class="cls-2" d="M422.8,30.9c.2.1.4.3.6.6l32.8,43.9c-.1-.7-.1-1.4-.1-2.1V30.8h3.2v50.7h-1.8c-.5,0-1-.2-1.3-.7l-32.9-44c.1.7.1,1.4.1,2v42.7h-3.2V30.8h1.8c.3,0,.6.1.8.1Z"/>
        <path class="cls-2" d="M510,73c.2,0,.4,0,.6.3l1.4,1.5c-1.1,1.1-2.2,2.1-3.4,3-1.2.9-2.6,1.7-4.1,2.3-1.5.6-3.1,1.1-4.8,1.5-1.8.3-3.7.5-5.8.5-3.5,0-6.7-.6-9.7-1.8-2.9-1.2-5.4-3-7.5-5.2-2.1-2.3-3.7-5-4.9-8.2-1.2-3.2-1.8-6.8-1.8-10.7s.6-7.4,1.8-10.5c1.2-3.2,2.9-5.9,5.1-8.2s4.8-4,7.8-5.3,6.4-1.9,10.1-1.9,3.5.1,5,.4,3,.7,4.3,1.2,2.6,1.2,3.7,1.9c1.2.8,2.3,1.6,3.4,2.6l-1.1,1.6c-.2.3-.5.4-.9.4s-.5,0-.8-.4c-.3-.3-.8-.6-1.3-.9-.5-.4-1.1-.8-1.9-1.2-.7-.4-1.6-.8-2.6-1.2s-2.2-.7-3.5-.9c-1.3-.3-2.8-.4-4.5-.4-3.1,0-5.9.5-8.5,1.6s-4.8,2.6-6.7,4.5c-1.9,2-3.3,4.4-4.4,7.2-1,2.8-1.6,6-1.6,9.4s.5,6.8,1.5,9.6c1,2.8,2.4,5.2,4.3,7.1,1.8,1.9,4,3.4,6.4,4.5s5.2,1.6,8,1.6,3.4,0,4.9-.4c1.4-.2,2.7-.6,3.9-1.1,1.2-.5,2.3-1.1,3.3-1.8,1-.7,2-1.5,3-2.4.1,0,.2-.2.3-.2.7,0,.8,0,1,0Z"/>
      </g>
      <g id="ICON">
        <path class="cls-1" d="M55.9,13.6c23.4,0,42.3,19,42.3,42.3s-19,42.3-42.3,42.3S13.6,79.2,13.6,55.9,32.6,13.6,55.9,13.6M55.9,0C25,0,0,25,0,56s25,55.9,55.9,55.9,55.9-25,55.9-55.9C111.9,25,86.8,0,55.9,0h0Z"/>
        <path class="cls-2" d="M57.8,30.5h-7.5l-15.9,17.2,15.9,17.3h7.5l-16-17.3,16-17.2h0ZM48.4,30.5h-7.5l-15.8,17.2,15.8,17.3h7.5l-16-17.3,16-17.2h0Z"/>
        <path class="cls-2" d="M70.9,46.8h-7.5l16,17.3h0l-16,17.3h7.5l15.9-17.3-15.9-17.3h0ZM61.6,46.8h-7.5l16,17.3-16,17.3h7.5l15.9-17.3-15.9-17.3h0Z"/>
      </g>
    </g>
  </g>
</svg>