<?xml version="1.0" encoding="UTF-8"?>
<svg xmlns="http://www.w3.org/2000/svg" xmlns:xlink="http://www.w3.org/1999/xlink" version="1.1" viewBox="0 0 512 111.9">
  <defs>
    <style>
      .cls-1 {
        fill: #ffffff;
      }

      .cls-2 {
        fill: url(#linear-gradient);
      }

      .cls-3 {
        fill: #ffffff;
      }

      .cls-4 {
        display: none;
      }
    </style>
    <linearGradient id="linear-gradient" x1="416.6" y1="18.5" x2="495.7" y2="97.6" gradientTransform="translate(0 114) scale(1 -1)" gradientUnits="userSpaceOnUse">
      <stop offset=".3" stop-color="#3e250d"/>
      <stop offset=".3" stop-color="#44280e"/>
      <stop offset=".4" stop-color="#633713"/>
      <stop offset=".4" stop-color="#844515"/>
      <stop offset=".5" stop-color="#a35316"/>
      <stop offset=".6" stop-color="#be5e15"/>
      <stop offset=".7" stop-color="#d26613"/>
      <stop offset=".8" stop-color="#e16b12"/>
      <stop offset="1" stop-color="#e76e11"/>
    </linearGradient>
  </defs>
  <!-- Generator: Adobe Illustrator 28.6.0, SVG Export Plug-In . SVG Version: 1.2.0 Build 709)  -->
  <g>
    <g id="Layer_1">
      <g id="CODESYNC" class="cls-4">
        <path class="cls-3" d="M181,68c.3,0,.6,0,.9.2.3,0,.6.3.8.6l4.8,5c-2.1,2.7-4.7,4.8-7.9,6.2-3.2,1.4-6.9,2.1-11.2,2.1s-7.5-.7-10.7-2c-3.1-1.3-5.8-3.2-8-5.6s-3.9-5.2-5-8.5c-1.2-3.3-1.8-6.8-1.8-10.6s.7-7.5,2-10.7c1.3-3.3,3.2-6.1,5.6-8.4,2.4-2.4,5.3-4.2,8.6-5.5s7-2,11.1-2,3.8.2,5.5.5,3.3.8,4.9,1.4c1.5.6,2.9,1.3,4.2,2.2,1.3.8,2.4,1.8,3.4,2.8l-4.1,5.5c-.3.3-.6.6-.9.9-.4.3-.9.4-1.5.4s-.8,0-1.2-.3-.8-.4-1.2-.7-.9-.6-1.4-.9c-.5-.3-1.1-.6-1.8-.9-.7-.3-1.5-.5-2.5-.7-.9-.2-2-.3-3.3-.3-2.2,0-4.2.4-6,1.2s-3.4,1.9-4.7,3.3c-1.3,1.4-2.3,3.2-3,5.2-.7,2.1-1.1,4.4-1.1,6.9s.4,5.1,1.1,7.1c.7,2.1,1.7,3.8,3,5.2,1.3,1.4,2.7,2.5,4.4,3.2s3.5,1.1,5.4,1.1,2.1,0,3-.2,1.7-.3,2.5-.6c.8-.3,1.5-.6,2.2-1s1.4-.9,2.1-1.6c.3-.2.6-.4.9-.6.2.2.6.1.9.1Z"/>
        <path class="cls-3" d="M243.3,55.5c0,3.8-.7,7.3-2,10.5-1.3,3.2-3.1,6.1-5.5,8.5s-5.2,4.3-8.5,5.6c-3.3,1.4-7,2-11.1,2s-7.8-.7-11.1-2c-3.3-1.4-6.2-3.2-8.6-5.6-2.4-2.4-4.2-5.2-5.5-8.5-1.3-3.2-2-6.8-2-10.5s.7-7.3,2-10.5,3.1-6.1,5.5-8.5,5.2-4.3,8.6-5.6c3.3-1.4,7-2,11.1-2s7.8.7,11.1,2.1c3.3,1.4,6.2,3.3,8.5,5.6,2.4,2.4,4.2,5.2,5.5,8.5,1.4,3.1,2,6.6,2,10.4ZM230.9,55.5c0-2.6-.3-4.9-1-7s-1.6-3.8-2.9-5.2c-1.3-1.4-2.8-2.5-4.6-3.3s-3.9-1.1-6.2-1.1-4.4.4-6.2,1.1c-1.8.8-3.4,1.9-4.6,3.3-1.3,1.4-2.2,3.2-2.9,5.2-.7,2.1-1,4.4-1,7s.3,4.9,1,7,1.6,3.8,2.9,5.2c1.3,1.4,2.8,2.5,4.6,3.3s3.9,1.1,6.2,1.1,4.4-.4,6.2-1.1c1.8-.8,3.3-1.8,4.6-3.3,1.3-1.4,2.2-3.2,2.9-5.2.7-2.1,1-4.4,1-7Z"/>
        <path class="cls-3" d="M295.2,55.5c0,3.8-.6,7.3-2,10.4-1.4,3.1-3.1,5.9-5.5,8.3-2.4,2.3-5.2,4.1-8.5,5.4s-7,2-11.1,2h-20.3V29.3h20.3c4.1,0,7.8.7,11.1,2,3.3,1.3,6.2,3.1,8.5,5.4,2.4,2.3,4.2,5.1,5.5,8.3s2,6.6,2,10.4ZM282.8,55.5c0-2.6-.3-4.9-1-7s-1.6-3.8-2.9-5.3c-1.3-1.4-2.8-2.6-4.6-3.3-1.8-.8-3.9-1.2-6.2-1.2h-8.1v33.6h8.1c2.3,0,4.4-.4,6.2-1.2,1.8-.8,3.3-1.9,4.6-3.3,1.3-1.4,2.2-3.2,2.9-5.3.7-2.1,1-4.4,1-7Z"/>
        <path class="cls-3" d="M333.4,29.3v9.3h-21.4v12.2h16.4v9h-16.4v12.4h21.4v9.3h-33.6V29.3h33.6Z"/>
        <path class="cls-3" d="M366.8,37c-.2.4-.5.6-.9.6s-.7-.2-1.2-.7c-.5-.4-1.2-.9-2-1.5-.8-.5-1.9-1-3.1-1.5-1.3-.5-2.8-.7-4.7-.7s-3.5.3-4.9.8-2.6,1.2-3.5,2.1c-.9.9-1.7,2-2.2,3.2s-.7,2.4-.7,3.8.4,3.1,1.1,4.3c.7,1.1,1.7,2.1,2.9,2.9s2.6,1.5,4.1,2,3.1,1.1,4.7,1.6,3.2,1.1,4.7,1.7c1.5.6,2.9,1.4,4.1,2.4s2.2,2.1,2.9,3.5c.7,1.4,1.1,3.1,1.1,5.2s-.4,4.1-1.1,6-1.8,3.5-3.2,4.9c-1.4,1.4-3.1,2.5-5.1,3.3s-4.3,1.2-6.9,1.2-6.2-.6-8.6-1.8c-2.4-1.2-4.5-2.8-6.3-4.9l1-1.6c.3-.4.6-.5,1-.5s.5,0,.8.4.7.6,1.2,1.1c.5.4,1.1.9,1.7,1.4.7.5,1.4.9,2.3,1.4.9.4,1.9.8,3,1.1,1.1.3,2.5.4,3.9.4,2,0,3.8-.3,5.4-.9s2.9-1.4,4-2.5,1.9-2.3,2.5-3.7c.6-1.4.9-3,.9-4.6s-.4-3.3-1.1-4.4c-.7-1.2-1.7-2.1-2.9-2.9-1.2-.8-2.6-1.4-4.1-2-1.5-.5-3.1-1-4.7-1.5s-3.2-1.1-4.7-1.7c-1.5-.6-2.9-1.4-4.1-2.4s-2.2-2.2-2.9-3.6c-.7-1.4-1.1-3.3-1.1-5.4s.3-3.3,1-4.9c.6-1.6,1.6-3,2.8-4.2,1.2-1.2,2.8-2.2,4.6-2.9,1.8-.7,3.9-1.1,6.3-1.1s5,.4,7.1,1.3c2.1.8,4,2.1,5.7,3.8l-.8,1.5Z"/>
        <path class="cls-3" d="M394.3,60.6v20.9h-3.7v-20.9l-18.7-29.8h3.2c.3,0,.6.1.8.2.2.2.4.4.6.7l14.5,23.3c.3.5.6,1.1.9,1.6.2.5.5,1,.6,1.6.2-.5.4-1,.6-1.6.2-.5.5-1,.9-1.6l14.5-23.3c.1-.3.3-.5.5-.6.2-.2.5-.3.8-.3h3.2l-18.7,29.8Z"/>
        <path class="cls-3" d="M422.8,30.9c.2.1.4.3.6.6l32.8,43.9c-.1-.7-.1-1.4-.1-2.1V30.8h3.2v50.7h-1.8c-.5,0-1-.2-1.3-.7l-32.9-44c.1.7.1,1.4.1,2v42.7h-3.2V30.8h1.8c.3,0,.6.1.8.1Z"/>
        <path class="cls-3" d="M510,73c.2,0,.4,0,.6.3l1.4,1.5c-1.1,1.1-2.2,2.1-3.4,3-1.2.9-2.6,1.7-4.1,2.3-1.5.6-3.1,1.1-4.8,1.5-1.8.3-3.7.5-5.8.5-3.5,0-6.7-.6-9.7-1.8-2.9-1.2-5.4-3-7.5-5.2-2.1-2.3-3.7-5-4.9-8.2-1.2-3.2-1.8-6.8-1.8-10.7s.6-7.4,1.8-10.5c1.2-3.2,2.9-5.9,5.1-8.2s4.8-4,7.8-5.3,6.4-1.9,10.1-1.9,3.5.1,5,.4,3,.7,4.3,1.2,2.6,1.2,3.7,1.9c1.2.8,2.3,1.6,3.4,2.6l-1.1,1.6c-.2.3-.5.4-.9.4s-.5,0-.8-.4c-.3-.3-.8-.6-1.3-.9-.5-.4-1.1-.8-1.9-1.2-.7-.4-1.6-.8-2.6-1.2s-2.2-.7-3.5-.9c-1.3-.3-2.8-.4-4.5-.4-3.1,0-5.9.5-8.5,1.6s-4.8,2.6-6.7,4.5c-1.9,2-3.3,4.4-4.4,7.2-1,2.8-1.6,6-1.6,9.4s.5,6.8,1.5,9.6c1,2.8,2.4,5.2,4.3,7.1,1.8,1.9,4,3.4,6.4,4.5s5.2,1.6,8,1.6,3.4,0,4.9-.4c1.4-.2,2.7-.6,3.9-1.1,1.2-.5,2.3-1.1,3.3-1.8,1-.7,2-1.5,3-2.4.1,0,.2-.2.3-.2.7,0,.8,0,1,0Z"/>
      </g>
      <g id="ICON">
        <path class="cls-2" d="M456.1,13.6c23.4,0,42.3,19,42.3,42.3s-19,42.3-42.3,42.3-42.3-19-42.3-42.3,19-42.3,42.3-42.3M456.1,0c-30.9,0-55.9,25-55.9,55.9s25,55.9,55.9,55.9,55.9-25,55.9-55.9c0-30.9-25-55.9-55.9-55.9h0Z"/>
        <path class="cls-3" d="M458,30.5h-7.5l-15.9,17.2,15.9,17.3h7.5l-16-17.3,16-17.2h0ZM448.6,30.5h-7.5l-15.8,17.2,15.8,17.3h7.5l-16-17.3,16-17.2h0Z"/>
        <path class="cls-3" d="M471.1,46.8h-7.5l16,17.3h0l-16,17.3h7.5l15.9-17.3-15.9-17.3h0ZM461.8,46.8h-7.5l16,17.3-16,17.3h7.5l15.9-17.3-15.9-17.3h0Z"/>
      </g>
      <g id="CODESYNC-2" data-name="CODESYNC">
        <g>
          <path class="cls-1" d="M0,71.1v-9.5h23.2l-7.1,6.1v-8.7c0-3-.3-5.2-.8-6.8-.6-1.6-1.5-2.7-2.8-3.3-1.3-.6-3.1-.9-5.5-.9H1.7v-9.5h5.3c4.4,0,8.1.7,11.1,2.2,3,1.5,5.3,3.7,6.9,6.7,1.5,3,2.3,6.9,2.3,11.7v12.2H0Z"/>
          <path class="cls-1" d="M52.6,88.5c-1.7,0-3.4-.1-5.2-.4-1.8-.2-3.6-.6-5.6-.9l1.6-8.9c2.1.3,3.9.4,5.4.6,1.5.1,2.7.2,3.7.2,2.8,0,4.8-.5,6-1.4,1.2-1,1.8-2.4,1.8-4.4v-26.6l1.8,1.4h-6.2c-1.2,0-2.3.2-3.2.5-.9.3-1.6,1-2.1,2-.5,1-.7,2.6-.7,4.7s.2,3.5.7,4.4,1.1,1.5,2,1.8c.9.3,2,.4,3.4.4h4.4v9.5h-4.4c-3.6,0-6.8-.6-9.3-1.8-2.6-1.2-4.5-3-5.9-5.3-1.3-2.4-2-5.4-2-9s.7-6.6,2-9.1c1.3-2.5,3.3-4.4,5.9-5.6,2.6-1.3,5.7-1.9,9.3-1.9h15.6v34.8c0,3.1-.8,5.9-2.4,8.2-1.6,2.3-3.8,4.1-6.6,5.3-2.8,1.2-6.2,1.9-10,1.9ZM71.7,71.1v-9.5h6.8v9.5h-6.8ZM78.4,71.1v-9.5c.2,0,.4.1.6.3.2.2.3.5.4.9.1.4.2.9.3,1.5,0,.6,0,1.2,0,2s0,1.4,0,2c0,.6-.2,1.1-.3,1.5-.1.4-.2.7-.4.9-.2.2-.3.3-.6.3Z"/>
          <path class="cls-1" d="M78.4,71.1c-.2,0-.4-.1-.6-.3s-.3-.5-.4-.9c0-.4-.2-.9-.2-1.5,0-.6,0-1.2,0-2s0-1.8.1-2.5c0-.7.2-1.2.4-1.6.2-.4.4-.6.7-.6v9.5ZM78.4,71.1v-9.5h32.8l-3.5,2.8v-7c0-2.2-.2-3.9-.6-5.1-.4-1.2-1-2.1-1.8-2.6-.8-.5-1.8-.8-3-.8h-14.4l-6.5-9.3,3.6-6.8c.3-.6.7-1.2,1.1-2,.4-.8,1-1.7,1.8-2.9s1.7-2.6,2.9-4.4l9.4,5.1c-1,1.5-1.9,2.8-2.5,3.8-.6,1-1.2,1.9-1.6,2.7-.4.8-.8,1.5-1.3,2.2l-2,4-1.3-1.9h10.7c2.8,0,5.3.4,7.3,1.3,2.1.9,3.8,2.2,5.1,3.8s2.4,3.6,3.1,5.8c.7,2.2,1,4.6,1,7.1v13.7h-40.4ZM118.9,71.1v-9.5h6.7v9.5h-6.7ZM125.6,71.1v-9.5c.3,0,.5.1.6.3.2.2.3.5.4.9s.2.9.2,1.5c0,.6,0,1.2,0,2s0,1.4,0,2c0,.6-.1,1.1-.2,1.5-.1.4-.2.7-.4.9-.2.2-.4.3-.6.3Z"/>
          <path class="cls-1" d="M125.6,71.1c-.2,0-.4-.1-.6-.3s-.3-.5-.4-.9c0-.4-.2-.9-.2-1.5,0-.6,0-1.2,0-2s0-1.8.1-2.5c0-.7.2-1.2.4-1.6.2-.4.4-.6.7-.6v9.5ZM125.6,71.1v-9.5h7v9.5h-7ZM132.6,71.1V25.5h11.2v45.6h-11.2Z"/>
          <path class="cls-1" d="M159.7,71.1V25.5h11.1v45.6h-11.1Z"/>
          <path class="cls-1" d="M199.7,71.1c-3.7,0-6.7-.6-8.8-1.7-2.1-1.1-3.7-2.9-4.6-5.3-.9-2.4-1.3-5.5-1.3-9.2s.4-6.8,1.3-9.2,2.4-4.2,4.6-5.4c2.1-1.2,5.1-1.7,8.8-1.7h13.7v29.8h-5.6v-26.9l2.5,2.1h-10.6c-2.4,0-4.2.3-5.6.9s-2.2,1.7-2.8,3.3c-.5,1.6-.8,4-.8,7.1s.2,5.5.7,7.1c.5,1.6,1.4,2.7,2.8,3.3,1.3.6,3.2.9,5.6.9h20.7v5h-20.7ZM193,32.7v-6.1h5.5v6.1h-5.5ZM202.3,32.7v-6.1h5.5v6.1h-5.5ZM220.4,71.1v-5c.3,0,.5,0,.7.2.2.1.3.3.4.5,0,.2.2.5.2.8,0,.3,0,.7,0,1s0,.8,0,1.1-.1.6-.2.8c0,.2-.2.4-.4.5-.2.1-.4.2-.7.2Z"/>
          <path class="cls-1" d="M220.4,71.1c-.3,0-.5,0-.7-.2s-.3-.3-.4-.5c0-.2-.2-.5-.2-.8,0-.3,0-.7,0-1.1s0-1,0-1.3.2-.6.4-.8c.2-.2.5-.3.8-.3v5ZM220.4,71.1v-5h9.7l-2.7,2.2v-29.8h5.5v32.6h-12.6ZM227.5,32.7v-6.1h5.6v6.1h-5.6ZM233,71.1v-5h7v5h-7ZM240,71.1v-5c.3,0,.5,0,.7.2.2.1.3.3.4.5,0,.2.2.5.2.8,0,.3,0,.7,0,1s0,.8,0,1.1-.1.6-.2.8c0,.2-.2.4-.4.5-.2.1-.4.2-.7.2Z"/>
          <path class="cls-1" d="M240,71.1c-.3,0-.5,0-.7-.2s-.3-.3-.4-.5c0-.2-.2-.5-.2-.8,0-.3,0-.7,0-1.1s0-1,0-1.3.2-.6.4-.8c.2-.2.5-.3.8-.3v5ZM240,71.1v-5h35.4l-3.8,2.7v-13.7c0-3-.3-5.3-1-7s-1.8-2.9-3.5-3.6c-1.6-.7-3.8-1-6.6-1s-3.6.1-5.4.4c-1.8.2-3.2.6-4.2,1l3.4-3.4c-.3,1-.5,2.4-.8,3.9-.3,1.6-.5,3.3-.7,5.1-.2,1.8-.3,3.6-.3,5.4s0,3.6.3,5.4c.2,1.8.4,3.3.6,4.6.2,1.3.4,2.2.5,2.7l-5.3,1.5c-.2-.6-.4-1.5-.7-2.9s-.5-3.1-.7-5c-.2-2-.3-4-.3-6.3s.1-4.2.3-6.2.5-3.9.7-5.5.6-3,.8-4c1-.4,2.5-.8,4.6-1.2,2.1-.4,4.4-.6,6.9-.6,3.7,0,6.8.5,9.2,1.6s4.3,2.8,5.5,5.3,1.8,5.7,1.8,9.8v16h-37.1Z"/>
          <path class="cls-1" d="M294.2,71.1V24.5h5.5v46.6h-5.5Z"/>
          <path class="cls-1" d="M312.8,85.7c-.6,0-1.2,0-1.8,0-.6,0-1.2-.1-1.9-.2l.5-5c.6,0,1.2,0,1.7.2.5,0,1,0,1.4,0,2,0,3.6-.8,4.8-2.3,1.2-1.5,1.8-3.6,1.8-6.3v-33.6h5.6v33.6c0,2.7-.5,5.1-1.6,7.1-1,2.1-2.5,3.7-4.3,4.8-1.8,1.1-4,1.7-6.3,1.7ZM319.4,32.7v-6.1h5.6v6.1h-5.6ZM323.6,71.1v-5h8.3v5h-8.3ZM332,71.1v-5c.3,0,.5,0,.7.2.2.1.3.3.4.5,0,.2.2.5.2.8,0,.3,0,.7,0,1s0,.8,0,1.1c0,.3-.1.6-.2.8,0,.2-.2.4-.4.5s-.4.2-.7.2Z"/>
          <path class="cls-1" d="M332,71.1c-.3,0-.5,0-.7-.2s-.3-.3-.4-.5c0-.2-.2-.5-.2-.8,0-.3,0-.7,0-1.1s0-1,0-1.3.2-.6.4-.8c.2-.2.5-.3.8-.3v5ZM332,71.1v-5h35.4l-3.8,2.7v-13.7c0-3-.3-5.3-1-7s-1.8-2.9-3.5-3.6c-1.6-.7-3.8-1-6.6-1s-3.6.1-5.4.4c-1.8.2-3.2.6-4.2,1l3.4-3.4c-.3,1-.5,2.4-.8,3.9-.3,1.6-.5,3.3-.7,5.1-.2,1.8-.3,3.6-.3,5.4s0,3.6.3,5.4c.2,1.8.4,3.3.6,4.6.2,1.3.4,2.2.5,2.7l-5.3,1.5c-.2-.6-.4-1.5-.7-2.9s-.5-3.1-.7-5c-.2-2-.3-4-.3-6.3s.1-4.2.3-6.2.5-3.9.7-5.5.6-3,.8-4c1-.4,2.5-.8,4.6-1.2,2.1-.4,4.4-.6,6.9-.6,3.7,0,6.8.5,9.2,1.6,2.5,1.1,4.3,2.8,5.5,5.3s1.8,5.7,1.8,9.8v16h-37.1Z"/>
        </g>
      </g>
    </g>
  </g>
</svg>